HIERARCHY
ROOT joint_Root
{
	OFFSET 0.0 0.0 0.0
	CHANNELS 6 Xposition Yposition Zposition Zrotation Xrotation Yrotation 
	JOINT Hips
	{
		OFFSET 4.5925 91.4895 -427.239
		CHANNELS 6 Xposition Yposition Zposition Zrotation Xrotation Yrotation 
		JOINT Spine
		{
			OFFSET 15.7357 0.0 0.0
			CHANNELS 6 Xposition Yposition Zposition Zrotation Xrotation Yrotation 
			JOINT Chest
			{
				OFFSET 8.98455 -0.406207 0.0
				CHANNELS 6 Xposition Yposition Zposition Zrotation Xrotation Yrotation 
				JOINT Neck
				{
					OFFSET 16.3773 0.0 0.0
					CHANNELS 6 Xposition Yposition Zposition Zrotation Xrotation Yrotation 
					JOINT Head
					{
						OFFSET 6.45672 0.0 0.0
						CHANNELS 6 Xposition Yposition Zposition Zrotation Xrotation Yrotation 
						End Site
						{
							OFFSET 0.0 0.0 0.0
						}
					}
				}
				JOINT Shoulder_L
				{
					OFFSET 12.9942 -0.242716 4.98039
					CHANNELS 6 Xposition Yposition Zposition Zrotation Xrotation Yrotation 
					JOINT UpperArm_L
					{
						OFFSET 5.34809 0.0 0.0
						CHANNELS 6 Xposition Yposition Zposition Zrotation Xrotation Yrotation 
						JOINT LowerArm_L
						{
							OFFSET 24.3286 1.87007e-05 0.0
							CHANNELS 6 Xposition Yposition Zposition Zrotation Xrotation Yrotation 
							JOINT Hand_L
							{
								OFFSET 22.2916 0.0 0.0
								CHANNELS 6 Xposition Yposition Zposition Zrotation Xrotation Yrotation 
								End Site
								{
									OFFSET 0.0 0.0 0.0
								}
							}
						}
					}
				}
				JOINT Shoulder_R
				{
					OFFSET 12.9945 -0.242716 -4.98039
					CHANNELS 6 Xposition Yposition Zposition Zrotation Xrotation Yrotation 
					JOINT UpperArm_R
					{
						OFFSET -5.34813 0.0 0.0
						CHANNELS 6 Xposition Yposition Zposition Zrotation Xrotation Yrotation 
						JOINT LowerArm_R
						{
							OFFSET -24.3289 0.000322201 0.0
							CHANNELS 6 Xposition Yposition Zposition Zrotation Xrotation Yrotation 
							JOINT Hand_R
							{
								OFFSET -22.2915 -0.000108084 0.0
								CHANNELS 6 Xposition Yposition Zposition Zrotation Xrotation Yrotation 
								End Site
								{
									OFFSET 0.0 0.0 0.0
								}
							}
						}
					}
				}
			}
		}
		JOINT UpperLeg_L
		{
			OFFSET -2.19248 -6.46944 0.0
			CHANNELS 6 Xposition Yposition Zposition Zrotation Xrotation Yrotation 
			JOINT LowerLeg_L
			{
				OFFSET 39.0811 0.0 -1.23785e-05
				CHANNELS 6 Xposition Yposition Zposition Zrotation Xrotation Yrotation 
				JOINT Foot_L
				{
					OFFSET 40.9854 0.0 -1.26872e-05
					CHANNELS 6 Xposition Yposition Zposition Zrotation Xrotation Yrotation 
					JOINT Toes_L
					{
						OFFSET 11.7543 0.0 0.0
						CHANNELS 6 Xposition Yposition Zposition Zrotation Xrotation Yrotation 
						End Site
						{
							OFFSET 0.0 0.0 0.0
						}
					}
				}
			}
		}
		JOINT UpperLeg_R
		{
			OFFSET -2.19251 6.46944 0.0
			CHANNELS 6 Xposition Yposition Zposition Zrotation Xrotation Yrotation 
			JOINT LowerLeg_R
			{
				OFFSET -39.0811 -0.00228153 -0.0401928
				CHANNELS 6 Xposition Yposition Zposition Zrotation Xrotation Yrotation 
				JOINT Foot_R
				{
					OFFSET -40.9854 0.0 0.0
					CHANNELS 6 Xposition Yposition Zposition Zrotation Xrotation Yrotation 
					JOINT Toes_R
					{
						OFFSET -11.7543 0.0 0.0
						CHANNELS 6 Xposition Yposition Zposition Zrotation Xrotation Yrotation 
						End Site
						{
							OFFSET 0.0 0.0 0.0
						}
					}
				}
			}
		}
	}
}
MOTION
Frames:	4
Frame Time:	0.0333333
0.000000 0.000000 0.000000 0.000000 0.000000 -0.000000 0.097371 82.969800 0.271179 89.229800 -4.605890 12.272100 15.735700 0.000005 -0.000001 89.289200 80.531300 -89.517100 8.984550 -0.406207 -0.000000 11.169500 -0.239857 -0.432056 16.377300 -0.000001 -0.000001 -4.560240 -3.076460 1.849330 6.456720 -0.000001 -0.000000 -5.003540 -2.981730 4.597190 12.994200 -0.242716 4.980390 -90.443300 1.286440 -70.986500 5.348090 -0.000007 -0.000001 -61.511100 14.148200 -9.332120 24.328600 0.000019 0.000005 7.727750 20.305400 -21.358800 22.291600 -0.000001 0.000005 3.654590 5.337980 -1.016990 12.994500 -0.242716 -4.980390 88.524900 7.501400 -78.841400 -5.348130 -0.000001 -0.000004 -60.788000 15.385800 -9.365530 -24.328900 0.000322 -0.000009 -0.506412 -2.677360 -10.656000 -22.291500 -0.000108 -0.000004 -1.117340 5.340640 -1.064360 -2.192480 -6.469440 -0.000000 -174.527000 -10.914800 -11.267600 39.081100 -0.000007 -0.000012 -0.572902 0.335706 59.632100 40.985400 -0.000006 -0.000013 -0.441654 1.028250 -85.793000 11.754300 -0.000000 0.000003 -0.000410 -0.003373 -16.701800 -2.192510 6.469440 -0.000001 175.880000 11.496700 169.231000 -39.081100 -0.002282 -0.040193 0.077938 -0.043557 59.765600 -40.985400 0.000008 0.000006 6.194050 3.726640 -85.860000 -11.754300 -0.000006 -0.000006 -1.064870 -1.321960 -16.935300
0.000000 0.000000 0.000000 0.000000 0.000000 -0.000000 0.195658 84.912400 0.877961 89.326200 -3.796650 11.400500 15.735700 0.000005 -0.000001 88.699800 81.724500 -88.948500 8.984550 -0.406207 -0.000000 8.780130 -0.375871 -0.468091 16.377300 -0.000001 -0.000001 -2.894170 -2.870520 1.812470 6.456720 -0.000001 -0.000000 -4.009820 -2.652750 3.867430 12.994200 -0.242716 4.980390 -89.964600 -0.099569 -70.421100 5.348090 -0.000007 -0.000001 -55.304100 1.918640 -11.332200 24.328600 0.000019 0.000005 7.029380 24.020500 -16.852700 22.291600 -0.000001 0.000005 1.642170 5.271510 0.853324 12.994500 -0.242716 -4.980390 88.826000 5.513350 -77.958300 -5.348130 -0.000001 -0.000004 -55.976700 1.074750 -11.517300 -24.328900 0.000322 -0.000009 0.230909 4.083240 -3.266220 -22.291500 -0.000108 -0.000004 -6.886360 5.167860 3.513130 -2.192480 -6.469440 -0.000000 -175.205000 -9.849650 -8.967760 39.081100 -0.000007 -0.000012 -0.501582 0.369298 53.638200 40.985400 -0.000006 -0.000013 -0.583410 0.663954 -83.109100 11.754300 -0.000000 0.000003 -0.000395 -0.003274 -16.698400 -2.192510 6.469440 -0.000001 175.644000 12.160400 171.746000 -39.081100 -0.002282 -0.040193 0.067500 -0.046927 53.863800 -40.985400 0.000008 0.000006 5.899830 4.064960 -83.113500 -11.754300 -0.000006 -0.000006 -1.033070 -1.275890 -17.162600
0.000000 0.000000 0.000000 0.000000 0.000000 -0.000000 0.327531 87.196200 1.489000 89.528900 -3.457110 10.248800 15.735700 0.000005 -0.000001 89.680400 83.240100 -90.031500 8.984550 -0.406207 -0.000000 5.753500 -0.069053 -0.697956 16.377300 -0.000001 -0.000001 -0.222671 -2.822340 1.818580 6.456720 -0.000001 -0.000000 -2.636160 -2.829650 3.738210 12.994200 -0.242716 4.980390 -89.259600 -2.006230 -69.738100 5.348090 -0.000007 -0.000001 -48.128100 -12.930500 -15.606600 24.328600 0.000019 0.000005 6.524710 24.346000 -15.506200 22.291600 -0.000001 0.000005 3.987370 5.195080 2.840980 12.994500 -0.242716 -4.980390 89.204000 3.374250 -76.717000 -5.348130 -0.000001 -0.000004 -49.066900 -13.660500 -16.105600 -24.328900 0.000322 -0.000009 -0.001056 7.791680 0.000029 -22.291500 -0.000108 -0.000004 -4.961770 5.024920 6.782300 -2.192480 -6.469440 -0.000000 -175.931000 -9.170710 -5.859500 39.081100 -0.000007 -0.000012 -0.410312 0.401353 45.633300 40.985400 -0.000006 -0.000013 -0.725798 0.225764 -79.465800 11.754300 -0.000000 0.000003 -0.000309 -0.002670 -16.676900 -2.192510 6.469440 -0.000001 175.296000 12.880800 174.732000 -39.081100 -0.002282 -0.040193 0.051109 -0.045813 46.244700 -40.985400 0.000008 0.000006 5.637840 5.069900 -79.259600 -11.754300 -0.000006 -0.000006 -1.001210 -1.226350 -17.584300
0.000000 0.000000 0.000000 0.000000 0.000000 -0.000000 0.518407 89.079400 1.810320 89.525800 -3.547670 7.677250 15.735700 0.000005 -0.000001 90.833600 85.211700 -91.136300 8.984550 -0.406207 -0.000000 1.810090 0.154980 -0.607152 16.377300 -0.000001 -0.000001 2.582090 -2.689540 1.617970 6.456720 -0.000001 -0.000000 -1.213760 -2.613020 3.723290 12.994200 -0.242716 4.980390 -88.789800 -3.179280 -69.146900 5.348090 -0.000007 -0.000001 -40.069700 -26.636600 -21.778300 24.328600 0.000019 0.000005 5.442790 16.842800 -18.208300 22.291600 -0.000001 0.000005 6.320810 5.189600 2.983230 12.994500 -0.242716 -4.980390 89.613400 1.552830 -76.017600 -5.348130 -0.000001 -0.000004 -41.728800 -26.509400 -23.283600 -24.328900 0.000322 -0.000009 0.154131 6.145360 -1.470550 -22.291500 -0.000108 -0.000004 -0.349742 5.067220 5.866160 -2.192480 -6.469440 -0.000000 -176.525000 -9.398740 -4.560640 39.081100 -0.000007 -0.000012 -0.307174 0.391956 38.086300 40.985400 -0.000006 -0.000013 -0.604310 0.187234 -75.844100 11.754300 -0.000000 0.000003 -0.000248 -0.002222 -16.660800 -2.192510 6.469440 -0.000001 175.328000 14.413100 175.784000 -39.081100 -0.002282 -0.040193 0.034769 -0.038733 39.109600 -40.985400 0.000008 0.000006 5.514450 7.031040 -75.361400 -11.754300 -0.000006 -0.000006 -1.078050 -1.311940 -17.979000
